<?xml version="1.0" encoding="UTF-8"?>
<svg id="Capa_2" data-name="Capa 2" xmlns="http://www.w3.org/2000/svg" viewBox="0 0 195.22 166.45">
  <defs>
    <style>
      .cls-1 {
        fill: #0a255e;
        stroke-width: 0px;
      }
    </style>
  </defs>
  <g id="Capa_1-2" data-name="Capa 1">
    <g>
      <rect class="cls-1" y="105.72" width="183.1" height="4.6"/>
      <g>
        <polygon class="cls-1" points="5.33 140.34 13.44 140.34 13.44 136.98 5.33 136.98 5.33 132.65 12.2 132.65 12.2 129.4 5.33 129.4 5.33 125.57 13.48 125.57 13.48 122.2 5.33 122.2 3.77 122.2 .96 122.2 .96 140.34 3.77 140.34 5.33 140.34"/>
        <path class="cls-1" d="M25,140.25c.82-.23,1.53-.56,2.12-.99s1.04-.97,1.36-1.6c.31-.63.47-1.35.47-2.17,0-.77-.14-1.45-.4-2.06-.27-.61-.67-1.15-1.19-1.63s-1.15-.9-1.91-1.28c-.75-.38-1.61-.72-2.57-1.03-.51-.17-.98-.34-1.39-.51-.41-.17-.76-.36-1.04-.55-.29-.19-.51-.4-.66-.62-.16-.22-.23-.46-.23-.74,0-.33.09-.64.28-.92.19-.28.47-.5.85-.67.38-.17.84-.25,1.39-.25s1.03.1,1.41.3c.37.2.65.47.84.82s.28.75.28,1.21h4.35c0-1.14-.29-2.14-.87-2.98-.57-.85-1.37-1.5-2.39-1.96-1.02-.46-2.19-.69-3.52-.69-1.01,0-1.93.12-2.78.36-.85.23-1.58.57-2.21,1.02-.63.45-1.12.98-1.47,1.61s-.52,1.33-.52,2.11.17,1.52.51,2.14c.34.61.8,1.14,1.39,1.59.58.45,1.24.85,1.98,1.19s1.51.64,2.31.9c.68.23,1.23.44,1.65.64.42.21.74.4.96.61.23.2.38.41.46.64.08.23.12.49.12.77,0,.33-.08.62-.24.89-.16.27-.4.49-.75.65-.34.17-.79.24-1.35.24-.51,0-.97-.05-1.37-.14s-.73-.25-1.01-.47c-.27-.22-.48-.51-.62-.88-.14-.37-.21-.82-.21-1.35h-4.39c0,1.07.22,1.99.65,2.77.44.78,1.02,1.41,1.75,1.91.73.5,1.55.86,2.45,1.1.9.23,1.82.35,2.75.35,1.02,0,1.93-.11,2.76-.34Z"/>
        <path class="cls-1" d="M42.28,139.78c1.1-.53,1.96-1.29,2.59-2.25.62-.96.96-2.08,1.02-3.34h-4.36c-.02.68-.15,1.24-.4,1.68-.25.43-.6.76-1.06.97-.45.21-1.02.32-1.68.32-.6,0-1.1-.1-1.51-.3-.41-.2-.75-.52-1.01-.96s-.44-.99-.56-1.67c-.11-.68-.17-1.5-.17-2.47v-1.01c0-.96.06-1.79.19-2.47.13-.69.33-1.24.59-1.68s.6-.75,1-.95c.4-.2.87-.3,1.41-.3.77,0,1.39.11,1.86.34.46.23.8.58,1.02,1.04s.34,1.03.35,1.71h4.36c-.11-1.25-.46-2.37-1.06-3.36s-1.44-1.76-2.53-2.32c-1.08-.56-2.42-.85-4-.85-1.15,0-2.19.2-3.13.61-.94.41-1.74,1-2.41,1.76-.67.77-1.19,1.7-1.54,2.79-.36,1.09-.54,2.32-.54,3.68v.99c0,1.36.17,2.59.51,3.67.34,1.09.85,2.02,1.51,2.78.66.76,1.47,1.35,2.42,1.75.95.41,2.03.61,3.24.61,1.5,0,2.79-.27,3.9-.8Z"/>
        <path class="cls-1" d="M61.28,137.63c.59-.97.88-2.17.88-3.58v-11.85h-4.37v11.85c0,.75-.1,1.35-.31,1.83-.21.47-.51.81-.92,1.02-.41.22-.91.33-1.51.33s-1.09-.11-1.51-.33c-.41-.22-.73-.56-.95-1.02-.22-.47-.32-1.08-.32-1.83v-11.85h-4.39v11.85c0,1.41.3,2.61.9,3.58.61.98,1.44,1.71,2.52,2.21,1.08.5,2.32.75,3.74.75s2.69-.25,3.75-.75c1.06-.5,1.89-1.23,2.48-2.21Z"/>
        <polygon class="cls-1" points="69.28 140.34 77.39 140.34 77.39 136.98 69.28 136.98 69.28 132.65 76.15 132.65 76.15 129.4 69.28 129.4 69.28 125.57 77.43 125.57 77.43 122.2 69.28 122.2 67.72 122.2 64.91 122.2 64.91 140.34 67.72 140.34 69.28 140.34"/>
        <polygon class="cls-1" points="83.56 122.2 79.19 122.2 79.19 140.34 82 140.34 83.56 140.34 91.17 140.34 91.17 136.98 83.56 136.98 83.56 122.2"/>
        <path class="cls-1" d="M101.47,122.2h-2.98l-6.67,18.14h4.7l1.05-3.39h5.99l1.05,3.39h4.71l-6.71-18.14h-1.14ZM98.61,133.57l1.95-6.31,1.95,6.31h-3.9Z"/>
        <path class="cls-1" d="M122.88,140.34c1.21,0,2.33-.21,3.34-.63,1.02-.42,1.9-1.02,2.65-1.79.74-.77,1.32-1.69,1.74-2.76.41-1.06.62-2.23.62-3.51v-.76c0-1.29-.2-2.46-.62-3.52-.41-1.06-.99-1.98-1.75-2.76-.75-.78-1.64-1.37-2.66-1.79-1.03-.42-2.15-.63-3.39-.63h-5.83v18.14h5.89ZM122.82,125.57c.64,0,1.21.11,1.7.34.49.23.9.56,1.24,1,.34.45.58,1,.76,1.66.17.66.25,1.43.25,2.3v.79c0,1.17-.15,2.14-.45,2.94-.3.79-.74,1.39-1.32,1.79-.58.4-1.28.6-2.11.6h-1.52v-11.4h1.46Z"/>
        <polygon class="cls-1" points="137.87 140.34 145.98 140.34 145.98 136.98 137.87 136.98 137.87 132.65 144.74 132.65 144.74 129.4 137.87 129.4 137.87 125.57 146.02 125.57 146.02 122.2 137.87 122.2 136.31 122.2 133.5 122.2 133.5 140.34 136.31 140.34 137.87 140.34"/>
        <polygon class="cls-1" points="158.5 122.2 154.13 122.2 154.13 140.34 156.95 140.34 158.5 140.34 166.12 140.34 166.12 136.98 158.5 136.98 158.5 122.2"/>
        <path class="cls-1" d="M172.51,136.95h5.99l1.05,3.39h4.71l-6.71-18.14h-4.12l-6.67,18.14h4.7l1.05-3.39ZM175.5,127.26l1.95,6.31h-3.9l1.95-6.31Z"/>
        <polygon class="cls-1" points="8.63 161.28 5.04 148.06 .16 148.06 6.24 166.2 7.85 166.2 9.45 166.2 11.02 166.2 17.13 148.06 12.23 148.06 8.63 161.28"/>
        <polygon class="cls-1" points="23.27 148.06 20.46 148.06 20.46 166.2 23.27 166.2 24.83 166.2 32.94 166.2 32.94 162.83 24.83 162.83 24.83 158.51 31.7 158.51 31.7 155.26 24.83 155.26 24.83 151.43 32.98 151.43 32.98 148.06 24.83 148.06 23.27 148.06"/>
        <path class="cls-1" d="M48.89,157.87c.57-.45,1.02-1.03,1.35-1.73.32-.7.49-1.57.49-2.6,0-1.19-.28-2.2-.84-3.01-.56-.82-1.36-1.43-2.39-1.85-1.03-.41-2.24-.62-3.64-.62h-7.14v18.14h4.37v-6.4h2.35l3.2,6.4h4.69v-.19l-3.82-7.38c.48-.23.98-.45,1.37-.76ZM41.1,151.43h2.77c.54,0,1,.1,1.36.3.37.2.65.49.84.86.19.37.29.82.29,1.35s-.1.96-.28,1.33c-.19.37-.46.65-.83.85-.36.2-.83.3-1.38.3h-2.77v-4.98Z"/>
        <path class="cls-1" d="M67.24,150.48c-.75-.78-1.64-1.37-2.66-1.79-1.03-.42-2.15-.63-3.39-.63h-5.83v18.14h5.89c1.21,0,2.33-.21,3.34-.63,1.02-.42,1.9-1.02,2.65-1.79.74-.77,1.32-1.69,1.74-2.76.41-1.06.62-2.23.62-3.51v-.76c0-1.29-.2-2.46-.62-3.52-.41-1.06-.99-1.98-1.75-2.76ZM65.14,157.51c0,1.17-.15,2.14-.45,2.94s-.74,1.39-1.32,1.79c-.58.4-1.28.6-2.11.6h-1.52v-11.4h1.46c.64,0,1.21.11,1.7.34.49.23.9.56,1.24,1,.34.45.58,1,.76,1.66.17.66.25,1.43.25,2.3v.79Z"/>
        <path class="cls-1" d="M81.81,148.06h-2.98l-6.67,18.14h4.7l1.05-3.39h5.99l1.05,3.39h4.71l-6.71-18.14h-1.14ZM78.95,159.43l1.95-6.31,1.95,6.31h-3.9Z"/>
        <path class="cls-1" d="M104.85,150.48c-.75-.78-1.64-1.37-2.66-1.79-1.03-.42-2.15-.63-3.39-.63h-5.83v18.14h5.89c1.21,0,2.33-.21,3.34-.63,1.02-.42,1.9-1.02,2.65-1.79.74-.77,1.32-1.69,1.74-2.76.41-1.06.62-2.23.62-3.51v-.76c0-1.29-.2-2.46-.62-3.52-.41-1.06-.99-1.98-1.75-2.76ZM102.75,157.51c0,1.17-.15,2.14-.45,2.94-.3.79-.74,1.39-1.32,1.79-.58.4-1.28.6-2.11.6h-1.52v-11.4h1.46c.64,0,1.21.11,1.7.34.49.23.9.56,1.24,1,.34.45.58,1,.76,1.66.17.66.25,1.43.25,2.3v.79Z"/>
        <path class="cls-1" d="M127.4,160.25c.68-.67,1.29-1.31,1.82-1.91.54-.6.99-1.18,1.36-1.75.38-.57.66-1.14.86-1.73.2-.58.3-1.19.3-1.82,0-1.1-.23-2.05-.69-2.83-.46-.79-1.14-1.38-2.05-1.8-.9-.41-2.03-.62-3.37-.62s-2.4.28-3.38.83c-.97.55-1.73,1.29-2.27,2.21-.54.92-.81,1.94-.81,3.05h4.21c0-.54.09-1.02.27-1.46s.43-.78.75-1.02c.32-.25.7-.37,1.13-.37s.79.09,1.09.28c.29.18.52.45.67.8.16.35.23.79.23,1.32,0,.31-.07.65-.22,1.03s-.38.81-.69,1.28c-.32.47-.73,1-1.25,1.59l-5.83,6.13v2.74h12.66v-3.24h-7.15l2.34-2.71Z"/>
        <path class="cls-1" d="M147.77,150.51c-.37-.61-.81-1.11-1.34-1.52-.52-.4-1.11-.7-1.75-.9-.65-.19-1.34-.29-2.09-.29-.93,0-1.78.16-2.55.46-.77.31-1.44.78-2.01,1.41-.56.63-1,1.43-1.3,2.39-.3.96-.45,2.09-.45,3.41v3.31c0,1.05.1,1.98.3,2.81.2.83.49,1.54.86,2.15.38.61.82,1.11,1.34,1.51.52.4,1.1.7,1.75.9.65.19,1.35.29,2.09.29.93,0,1.78-.15,2.55-.46s1.44-.78,2-1.41c.56-.63.99-1.43,1.3-2.39.3-.96.45-2.1.45-3.4v-3.31c0-1.05-.1-1.98-.3-2.81-.2-.83-.48-1.54-.85-2.15ZM144.72,159.29c0,.73-.05,1.35-.14,1.85-.1.51-.24.9-.42,1.21-.19.3-.41.52-.67.66s-.55.2-.87.2c-.27,0-.51-.04-.73-.12-.23-.08-.43-.22-.6-.4-.17-.19-.32-.43-.44-.73s-.21-.68-.28-1.11c-.06-.44-.09-.95-.09-1.54v-4.36c0-.72.05-1.33.14-1.83.1-.5.23-.9.42-1.19s.4-.52.67-.66.56-.2.89-.2c.27,0,.51.04.73.13s.42.23.59.41c.17.18.32.43.44.73s.21.67.28,1.1c.06.43.09.94.09,1.52v4.36Z"/>
        <path class="cls-1" d="M160.96,160.25c.68-.67,1.29-1.31,1.83-1.91.53-.6.99-1.18,1.36-1.75.37-.57.66-1.14.86-1.73.2-.58.3-1.19.3-1.82,0-1.1-.23-2.05-.69-2.83-.46-.79-1.14-1.38-2.05-1.8-.9-.41-2.03-.62-3.36-.62s-2.41.28-3.38.83c-.97.55-1.73,1.29-2.27,2.21-.55.92-.82,1.94-.82,3.05h4.21c0-.54.09-1.02.27-1.46s.43-.78.75-1.02c.33-.25.7-.37,1.13-.37s.79.09,1.09.28c.3.18.52.45.68.8.15.35.23.79.23,1.32,0,.31-.07.65-.22,1.03-.15.38-.38.81-.69,1.28-.32.47-.73,1-1.24,1.59l-5.83,6.13v2.74h12.66v-3.24h-7.15l2.34-2.71Z"/>
        <path class="cls-1" d="M181,155.85c-.48-.52-1.07-.91-1.76-1.18-.69-.27-1.49-.41-2.38-.41-.58,0-1.11.08-1.59.24-.48.17-.82.3-1.02.42l.41-3.6h7.18v-3.26h-10.61l-1.09,9.27,3.34.79c.16-.22.41-.43.76-.64s.83-.31,1.43-.31c.45,0,.85.07,1.18.2.33.13.6.33.8.58s.36.56.45.91c.1.36.14.76.14,1.21s-.03.83-.1,1.2c-.07.38-.18.71-.34,1.01-.16.29-.38.52-.65.68-.27.17-.62.25-1.03.25s-.76-.09-1.07-.27-.56-.43-.74-.75c-.18-.33-.28-.71-.31-1.15h-4.23c0,.83.17,1.58.52,2.25.35.67.83,1.24,1.44,1.7s1.3.83,2.06,1.08,1.55.37,2.36.37c1.08,0,2.01-.17,2.8-.51.79-.34,1.44-.79,1.96-1.37.52-.58.9-1.23,1.16-1.96.25-.73.38-1.48.38-2.26,0-.97-.12-1.84-.37-2.59-.24-.76-.61-1.4-1.09-1.92Z"/>
      </g>
      <g>
        <path class="cls-1" d="M80.6,0v13.79h-6.89c0-3.81-3.09-6.89-6.89-6.89H16.93c7.61,0,15.4,6.17,15.4,13.78v22.75h27.59c3.81,0,6.89-3.09,6.89-6.89h6.89v20.67h-6.89c0-3.81-3.09-6.89-6.89-6.89h-27.59v29.64c0,3.81,3.09,6.89,6.89,6.89h27.59c3.81,0,6.89-3.09,6.89-6.89h6.89v13.79H1.18v-6.9h6.89c3.81,0,6.9-3.09,6.9-6.89V20.68c0-5.1-2.77-9.55-6.89-11.93-2.03-1.18-4.38-1.85-6.9-1.85V0h79.42Z"/>
        <path class="cls-1" d="M195.22,0v6.89h-5.99c-2.58,0-4.89,1.62-5.77,4.04l-30.14,82.81h-17.37s-26.67-73.33-26.8-73.63c-.02-.05-.04-.09-.05-.14-2.13-5.39-6.47-9.68-11.89-11.75-2.09-.79-4.34-1.26-6.69-1.34-.22,0-.45-.01-.67-.01V0h43.75v6.89h-26.57c15.52,0,20.52,13.64,20.52,13.64l22.54,61.92,25.67-70.51c.89-2.46-.93-5.05-3.54-5.05h-9.31V0h32.31Z"/>
      </g>
      <rect class="cls-1" x="89.86" y="83.41" width="10.34" height="10.34"/>
      <rect class="cls-1" x="164.37" y="83.41" width="10.34" height="10.34"/>
    </g>
  </g>
</svg>